HIERARCHY
ROOT Hips
{
	OFFSET 0.053599 88.859886 3.107447
	CHANNELS 6 Xposition Yposition Zposition Zrotation Yrotation Xrotation 
	JOINT Spine
	{
		OFFSET -0.000000 8.814246 -2.080107
		CHANNELS 3 Zrotation Yrotation Xrotation
		JOINT Spine1
		{
			OFFSET 0.000000 8.844141 0.000000
			CHANNELS 3 Zrotation Yrotation Xrotation
			JOINT Spine2
			{
				OFFSET -0.000000 11.682268 0.000000
				CHANNELS 3 Zrotation Yrotation Xrotation
				JOINT Spine3
				{
					OFFSET 0.000000 11.746700 0.000000
					CHANNELS 3 Zrotation Yrotation Xrotation
					JOINT Neck
					{
						OFFSET -0.000000 17.658264 -0.000000
						CHANNELS 3 Zrotation Yrotation Xrotation
						JOINT Neck1
						{
							OFFSET -0.000000 5.101515 -0.000000
							CHANNELS 3 Zrotation Yrotation Xrotation
							JOINT Head
							{
								OFFSET 0.000000 5.101515 0.000000
								CHANNELS 3 Zrotation Yrotation Xrotation
								JOINT HeadEnd
								{
									OFFSET 0.000000 11.655085 0.000000
									CHANNELS 3 Zrotation Yrotation Xrotation
									End Site
									{
										OFFSET 0.000000 0.000000 0.000000
									}
								}
							}
						}
					}
					JOINT RightShoulder
					{
						OFFSET -2.625389 11.175210 0.000000
						CHANNELS 3 Zrotation Yrotation Xrotation
						JOINT RightArm
						{
							OFFSET -0.000000 10.434715 -0.000000
							CHANNELS 3 Zrotation Yrotation Xrotation
							JOINT RightForeArm
							{
								OFFSET -0.000000 29.628420 0.000000
								CHANNELS 3 Zrotation Yrotation Xrotation
								JOINT RightHand
								{
									OFFSET -0.000000 22.857611 0.000000
									CHANNELS 3 Zrotation Yrotation Xrotation
									JOINT RightHandThumb1
									{
										OFFSET -2.867323 3.959563 2.944291
										CHANNELS 3 Zrotation Yrotation Xrotation
										JOINT RightHandThumb2
										{
											OFFSET 0.000000 3.350399 0.000000
											CHANNELS 3 Zrotation Yrotation Xrotation
											JOINT RightHandThumb3
											{
												OFFSET 0.000000 3.756509 -0.000000
												CHANNELS 3 Zrotation Yrotation Xrotation
												JOINT RightHandThumb4
												{
													OFFSET 0.000000 3.147345 0.000000
													CHANNELS 3 Zrotation Yrotation Xrotation
													End Site
													{
														OFFSET 0.000000 0.000000 0.000000
													}
												}
											}
										}
									}
									JOINT RightHandIndex1
									{
										OFFSET -0.086752 10.030893 2.345280
										CHANNELS 3 Zrotation Yrotation Xrotation
										JOINT RightHandIndex2
										{
											OFFSET -0.000000 4.061090 0.000000
											CHANNELS 3 Zrotation Yrotation Xrotation
											JOINT RightHandIndex3
											{
												OFFSET -0.000000 3.248873 0.000000
												CHANNELS 3 Zrotation Yrotation Xrotation
												JOINT RightHandIndex4
												{
													OFFSET 0.000000 2.639709 -0.000000
													CHANNELS 3 Zrotation Yrotation Xrotation
													End Site
													{
														OFFSET 0.000000 0.000000 0.000000
													}
												}
											}
										}
									}
									JOINT RightHandMiddle1
									{
										OFFSET 0.104102 9.502952 0.006768
										CHANNELS 3 Zrotation Yrotation Xrotation
										JOINT RightHandMiddle2
										{
											OFFSET 0.000000 4.568727 0.000000
											CHANNELS 3 Zrotation Yrotation Xrotation
											JOINT RightHandMiddle3
											{
												OFFSET 0.000000 3.654981 -0.000000
												CHANNELS 3 Zrotation Yrotation Xrotation
												JOINT RightHandMiddle4
												{
													OFFSET -0.000000 2.741236 -0.000000
													CHANNELS 3 Zrotation Yrotation Xrotation
													End Site
													{
														OFFSET 0.000000 0.000000 0.000000
													}
												}
											}
										}
									}
									JOINT RightHandRing1
									{
										OFFSET 0.086752 8.921708 -2.267442
										CHANNELS 3 Zrotation Yrotation Xrotation
										JOINT RightHandRing2
										{
											OFFSET -0.000000 4.061090 0.000000
											CHANNELS 3 Zrotation Yrotation Xrotation
											JOINT RightHandRing3
											{
												OFFSET 0.000000 3.654981 -0.000000
												CHANNELS 3 Zrotation Yrotation Xrotation
												JOINT RightHandRing4
												{
													OFFSET 0.000000 2.741236 -0.000000
													CHANNELS 3 Zrotation Yrotation Xrotation
													End Site
													{
														OFFSET 0.000000 0.000000 0.000000
													}
												}
											}
										}
									}
									JOINT RightHandPinky1
									{
										OFFSET -0.173504 7.976997 -4.467199
										CHANNELS 3 Zrotation Yrotation Xrotation
										JOINT RightHandPinky2
										{
											OFFSET 0.000000 3.350399 -0.000000
											CHANNELS 3 Zrotation Yrotation Xrotation
											JOINT RightHandPinky3
											{
												OFFSET -0.000000 2.842763 0.000000
												CHANNELS 3 Zrotation Yrotation Xrotation
												JOINT RightHandPinky4
												{
													OFFSET -0.000000 2.639709 0.000000
													CHANNELS 3 Zrotation Yrotation Xrotation
													End Site
													{
														OFFSET 0.000000 0.000000 0.000000
													}
												}
											}
										}
									}
									JOINT RightForeArmEnd
									{
										OFFSET 0.000000 0.000000 0.000000
										CHANNELS 3 Zrotation Yrotation Xrotation
										End Site
										{
											OFFSET 0.000000 0.000000 0.000000
										}
									}
								}
								JOINT RightArmEnd
								{
									OFFSET 0.000000 0.000000 0.000000
									CHANNELS 3 Zrotation Yrotation Xrotation
									End Site
									{
										OFFSET 0.000000 0.000000 0.000000
									}
								}
							}
						}
					}
					JOINT LeftShoulder
					{
						OFFSET 2.625389 11.175210 0.000000
						CHANNELS 3 Zrotation Yrotation Xrotation
						JOINT LeftArm
						{
							OFFSET 0.000000 10.813635 -0.000000
							CHANNELS 3 Zrotation Yrotation Xrotation
							JOINT LeftForeArm
							{
								OFFSET 0.000000 28.724781 0.000000
								CHANNELS 3 Zrotation Yrotation Xrotation
								JOINT LeftHand
								{
									OFFSET 0.644384 25.716167 -0.328871
									CHANNELS 3 Zrotation Yrotation Xrotation
									JOINT LeftHandThumb1
									{
										OFFSET 2.867323 3.959563 2.944291
										CHANNELS 3 Zrotation Yrotation Xrotation
										JOINT LeftHandThumb2
										{
											OFFSET 0.000000 3.350399 0.000000
											CHANNELS 3 Zrotation Yrotation Xrotation
											JOINT LeftHandThumb3
											{
												OFFSET -0.000000 3.756509 0.000000
												CHANNELS 3 Zrotation Yrotation Xrotation
												JOINT LeftHandThumb4
												{
													OFFSET -0.000000 3.100000 0.000000
													CHANNELS 3 Zrotation Yrotation Xrotation
													End Site
													{
														OFFSET 0.000000 0.000000 0.000000
													}
												}
											}
										}
									}
									JOINT LeftHandIndex1
									{
										OFFSET 0.086752 10.030893 2.345280
										CHANNELS 3 Zrotation Yrotation Xrotation
										JOINT LeftHandIndex2
										{
											OFFSET -0.000000 4.061090 -0.000000
											CHANNELS 3 Zrotation Yrotation Xrotation
											JOINT LeftHandIndex3
											{
												OFFSET 0.000000 3.248873 -0.000000
												CHANNELS 3 Zrotation Yrotation Xrotation
												JOINT LeftHandIndex4
												{
													OFFSET 0.000000 2.639709 -0.000000
													CHANNELS 3 Zrotation Yrotation Xrotation
													End Site
													{
														OFFSET 0.000000 0.000000 0.000000
													}
												}
											}
										}
									}
									JOINT LeftHandMiddle1
									{
										OFFSET -0.104102 9.502952 0.006768
										CHANNELS 3 Zrotation Yrotation Xrotation
										JOINT LeftHandMiddle2
										{
											OFFSET -0.000000 4.568727 -0.000000
											CHANNELS 3 Zrotation Yrotation Xrotation
											JOINT LeftHandMiddle3
											{
												OFFSET 0.000000 3.654981 0.000000
												CHANNELS 3 Zrotation Yrotation Xrotation
												JOINT LeftHandMiddle4
												{
													OFFSET 0.000000 2.741236 -0.000000
													CHANNELS 3 Zrotation Yrotation Xrotation
													End Site
													{
														OFFSET 0.000000 0.000000 0.000000
													}
												}
											}
										}
									}
									JOINT LeftHandRing1
									{
										OFFSET -0.086752 8.921708 -2.267442
										CHANNELS 3 Zrotation Yrotation Xrotation
										JOINT LeftHandRing2
										{
											OFFSET 0.000000 4.061090 0.000000
											CHANNELS 3 Zrotation Yrotation Xrotation
											JOINT LeftHandRing3
											{
												OFFSET 0.000000 3.654981 0.000000
												CHANNELS 3 Zrotation Yrotation Xrotation
												JOINT LeftHandRing4
												{
													OFFSET 0.000000 2.741236 0.000000
													CHANNELS 3 Zrotation Yrotation Xrotation
													End Site
													{
														OFFSET 0.000000 0.000000 0.000000
													}
												}
											}
										}
									}
									JOINT LeftHandPinky1
									{
										OFFSET 0.173504 7.976997 -4.467199
										CHANNELS 3 Zrotation Yrotation Xrotation
										JOINT LeftHandPinky2
										{
											OFFSET -0.000000 3.350399 -0.000000
											CHANNELS 3 Zrotation Yrotation Xrotation
											JOINT LeftHandPinky3
											{
												OFFSET 0.000000 2.842763 0.000000
												CHANNELS 3 Zrotation Yrotation Xrotation
												JOINT LeftHandPinky4
												{
													OFFSET -0.000000 2.639709 -0.000000
													CHANNELS 3 Zrotation Yrotation Xrotation
													End Site
													{
														OFFSET 0.000000 0.000000 0.000000
													}
												}
											}
										}
									}
									JOINT LeftForeArmEnd
									{
										OFFSET 0.000000 0.000000 0.000000
										CHANNELS 3 Zrotation Yrotation Xrotation
										End Site
										{
											OFFSET 0.000000 0.000000 0.000000
										}
									}
								}
								JOINT LeftArmEnd
								{
									OFFSET 0.000000 0.000000 0.000000
									CHANNELS 3 Zrotation Yrotation Xrotation
									End Site
									{
										OFFSET 0.000000 0.000000 0.000000
									}
								}
							}
						}
					}
				}
			}
		}
	}
	JOINT RightUpLeg
	{
		OFFSET -11.289943 0.000000 0.000000
		CHANNELS 3 Zrotation Yrotation Xrotation
		JOINT RightLeg
		{
			OFFSET 0.000000 -38.200325 0.000000
			CHANNELS 3 Zrotation Yrotation Xrotation
			JOINT RightFoot
			{
				OFFSET -0.000000 -39.900856 -0.000000
				CHANNELS 3 Zrotation Yrotation Xrotation
				JOINT RightToeBase
				{
					OFFSET 0.000000 0.000000 15.261641
					CHANNELS 3 Zrotation Yrotation Xrotation
					JOINT RightToeBaseEnd
					{
						OFFSET 0.000000 0.000000 7.370709
						CHANNELS 3 Zrotation Yrotation Xrotation
						End Site
						{
							OFFSET 0.000000 0.000000 0.000000
						}
					}
				}
				JOINT RightLegEnd
				{
					OFFSET 0.000000 0.000000 0.000000
					CHANNELS 3 Zrotation Yrotation Xrotation
					End Site
					{
						OFFSET 0.000000 0.000000 0.000000
					}
				}
			}
			JOINT RightUpLegEnd
			{
				OFFSET 0.000000 0.000000 0.000000
				CHANNELS 3 Zrotation Yrotation Xrotation
				End Site
				{
					OFFSET 0.000000 0.000000 0.000000
				}
			}
		}
	}
	JOINT LeftUpLeg
	{
		OFFSET 11.315661 -0.000000 0.000000
		CHANNELS 3 Zrotation Yrotation Xrotation
		JOINT LeftLeg
		{
			OFFSET -0.000000 -38.200325 -0.000000
			CHANNELS 3 Zrotation Yrotation Xrotation
			JOINT LeftFoot
			{
				OFFSET 0.000000 -39.900856 -0.000000
				CHANNELS 3 Zrotation Yrotation Xrotation
				JOINT LeftToeBase
				{
					OFFSET -0.000000 -0.000000 15.261641
					CHANNELS 3 Zrotation Yrotation Xrotation
					JOINT LeftToeBaseEnd
					{
						OFFSET 0.000000 -0.000000 7.539996
						CHANNELS 3 Zrotation Yrotation Xrotation
						End Site
						{
							OFFSET 0.000000 0.000000 0.000000
						}
					}
				}
				JOINT LeftLegEnd
				{
					OFFSET 0.000000 0.000000 0.000000
					CHANNELS 3 Zrotation Yrotation Xrotation
					End Site
					{
						OFFSET 0.000000 0.000000 0.000000
					}
				}
			}
			JOINT LeftUpLegEnd
			{
				OFFSET 0.000000 0.000000 0.000000
				CHANNELS 3 Zrotation Yrotation Xrotation
				End Site
				{
					OFFSET 0.000000 0.000000 0.000000
				}
			}
		}
	}
}
MOTION
Frames: 4
Frame Time: 0.016667
0.350835 88.790718 3.311868 -0.181441 -1.309024 -10.685051 0.980462 0.020047 7.211680 -1.091411 0.350160 3.369476 0.055878 -0.829978 4.356241 -1.183015 0.117015 4.983830 2.114936 -0.160120 3.730568 0.580460 0.562711 -3.679875 -0.156787 -0.988239 -19.323471 0.000000 0.000000 0.000000 91.605270 -0.293848 9.592305 69.850189 -20.258753 1.693905 0.229436 19.484781 33.844532 -7.104421 15.126633 -8.118043 18.137541 30.653095 63.708157 -6.699445 -8.915191 -15.608737 -4.854609 -5.861584 -10.740925 0.000000 0.000000 0.000000 -2.554489 -8.486498 7.521313 2.897779 0.485885 0.731486 2.619024 0.043723 0.751686 0.000000 0.000000 0.000000 -1.839098 -3.044641 4.305174 2.072485 0.516060 0.262528 2.710357 0.008119 0.245524 0.000000 0.000000 0.000000 0.517124 4.500979 1.056251 2.969012 -0.996072 -0.446848 2.889980 -0.012443 -0.294269 0.000000 0.000000 0.000000 1.409041 12.649392 -3.522897 3.654633 -1.933921 -1.182623 3.361179 0.026251 -0.938338 0.000000 0.000000 0.000000 0.000000 0.000000 0.000000 0.000000 0.000000 0.000000 -89.008537 0.119294 4.839646 -71.800713 12.062600 -8.162986 -0.449120 -14.754555 62.947544 4.797947 -21.318909 -12.598493 -19.679115 -30.232281 62.263279 8.241921 11.694918 -19.892179 6.119843 7.909915 -13.930095 0.000000 0.000000 0.000000 -14.404142 -6.511147 5.272415 -10.659826 0.439217 -0.709255 -10.622211 -0.027627 -0.710168 0.000000 0.000000 0.000000 -15.049479 -1.091266 2.720208 -11.035974 0.469834 -0.347096 -11.108976 -0.012728 -0.283763 0.000000 0.000000 0.000000 -20.666267 7.738018 -0.039062 -14.161613 -0.953802 0.679335 -14.178816 0.032780 0.518160 0.000000 0.000000 0.000000 -24.912212 16.622826 -3.663992 -16.300512 -1.704444 2.253124 -15.945901 0.276945 1.968735 0.000000 0.000000 0.000000 0.000000 0.000000 0.000000 0.000000 0.000000 0.000000 -0.700511 -9.012424 14.646918 -0.082985 -0.710174 5.172394 -2.662216 -7.544412 17.503382 -0.822755 0.883895 -18.625811 0.000000 0.000000 0.000000 0.000000 0.000000 0.000000 0.000000 0.000000 0.000000 -1.548020 -5.869743 9.667024 0.064889 0.336489 10.212641 3.770379 -0.854780 16.215120 0.278050 -0.435439 -20.649218 0.000000 0.000000 0.000000 0.000000 0.000000 0.000000 0.000000 0.000000 0.000000 
0.331312 88.788162 3.339929 -0.189464 -1.274502 -10.686659 0.964240 0.027192 7.224948 -1.116083 0.352288 3.338379 0.080244 -0.865250 4.369959 -1.184128 0.104348 5.012418 2.050737 -0.100035 3.574009 0.569889 0.566544 -3.745938 -0.175920 -0.994682 -19.265921 0.000000 0.000000 0.000000 91.580498 -0.292144 9.630863 69.712753 -20.541134 1.861240 0.225969 19.569342 33.696671 -6.500852 15.253632 -7.966929 18.457932 30.543669 63.392063 -7.052768 -9.533440 -16.564720 -5.133555 -6.262255 -11.413357 0.000000 0.000000 0.000000 -0.282648 -8.901928 6.787956 3.750939 0.469651 0.807594 3.469005 0.027888 0.822806 0.000000 0.000000 0.000000 0.278457 -3.425025 3.833964 2.896389 0.509290 0.291218 3.531800 0.001775 0.271184 0.000000 0.000000 0.000000 2.427068 4.160271 0.922259 3.819576 -0.984421 -0.487359 3.733112 -0.003168 -0.325228 0.000000 0.000000 0.000000 3.034659 12.373591 -3.305002 4.432166 -1.906285 -1.303700 4.128917 0.050562 -1.037790 0.000000 0.000000 0.000000 0.000000 0.000000 0.000000 0.000000 0.000000 0.000000 -88.936348 0.123960 4.887168 -71.830612 12.109991 -8.388389 -0.460107 -15.101998 62.880127 3.564016 -21.919065 -12.535056 -20.332851 -30.056341 61.644222 8.831257 12.986513 -21.811872 6.625984 8.755568 -15.272507 0.000000 0.000000 0.000000 -18.915804 -5.726292 3.711578 -13.359975 0.398795 -0.816211 -13.306546 -0.069961 -0.806673 0.000000 0.000000 0.000000 -19.379765 -0.343515 1.684644 -13.701338 0.449984 -0.397734 -13.780886 -0.030927 -0.324625 0.000000 0.000000 0.000000 -24.810690 8.399798 -0.424362 -16.879435 -0.919117 0.747938 -16.890671 0.057145 0.573663 0.000000 0.000000 0.000000 -28.593109 17.087267 -3.347425 -18.818136 -1.608031 2.459641 -18.466755 0.352498 2.137710 0.000000 0.000000 0.000000 0.000000 0.000000 0.000000 0.000000 0.000000 0.000000 -0.683876 -9.013309 14.702399 -0.083498 -0.710817 5.135842 -2.659986 -7.568950 17.487741 -0.830842 0.886893 -18.624193 0.000000 0.000000 0.000000 0.000000 0.000000 0.000000 0.000000 0.000000 0.000000 -1.555907 -5.872531 9.699085 0.063230 0.330264 10.166203 3.783185 -0.920698 16.174595 0.276918 -0.428757 -20.616993 0.000000 0.000000 0.000000 0.000000 0.000000 0.000000 0.000000 0.000000 0.000000 
0.308953 88.786224 3.367521 -0.197463 -1.247097 -10.692140 0.943621 0.033219 7.240541 -1.142633 0.355506 3.321509 0.110327 -0.904206 4.373390 -1.190048 0.094418 5.022819 1.975519 -0.039277 3.439233 0.559659 0.572825 -3.800276 -0.196870 -1.002120 -19.202539 0.000000 0.000000 0.000000 91.589211 -0.291569 9.686006 69.548775 -20.833876 2.095218 0.226171 19.634432 33.394226 -5.983284 15.248471 -7.753295 18.750010 30.447191 63.110413 -7.364326 -10.099182 -17.423603 -5.383016 -6.628735 -12.022512 0.000000 0.000000 0.000000 1.842059 -9.285205 6.066443 4.638812 0.453852 0.885632 4.354528 0.012316 0.896012 0.000000 0.000000 0.000000 2.250081 -3.778347 3.379076 3.744611 0.502581 0.320089 4.374509 -0.004501 0.297173 0.000000 0.000000 0.000000 4.191367 3.843967 0.813092 4.677028 -0.973178 -0.530217 4.577568 0.005754 -0.357914 0.000000 0.000000 0.000000 4.538840 12.116511 -3.039092 5.203245 -1.879581 -1.433974 4.890514 0.073945 -1.145360 0.000000 0.000000 0.000000 0.000000 0.000000 0.000000 0.000000 0.000000 0.000000 -88.884850 0.127648 4.942844 -71.839310 12.240484 -8.598677 -0.467689 -15.387794 62.713074 2.810468 -21.971310 -12.475315 -20.866114 -29.922039 61.146145 9.282157 14.054816 -23.364965 7.023771 9.449670 -16.364876 0.000000 0.000000 0.000000 -22.560091 -5.106785 2.560596 -15.616566 0.356622 -0.932327 -15.552326 -0.113858 -0.911042 0.000000 0.000000 0.000000 -22.889526 0.248401 0.944041 -15.917911 0.429706 -0.450066 -16.003323 -0.049611 -0.367446 0.000000 0.000000 0.000000 -28.109697 8.917732 -0.655558 -19.102802 -0.885086 0.816587 -19.105377 0.081368 0.628724 0.000000 0.000000 0.000000 -31.485802 17.459015 -3.022010 -20.861345 -1.515502 2.666558 -20.511839 0.426249 2.305644 0.000000 0.000000 0.000000 0.000000 0.000000 0.000000 0.000000 0.000000 0.000000 -0.669573 -9.012330 14.769626 -0.083688 -0.712240 5.082511 -2.656211 -7.592554 17.477188 -0.838956 0.890801 -18.618359 0.000000 0.000000 0.000000 0.000000 0.000000 0.000000 0.000000 0.000000 0.000000 -1.563061 -5.871838 9.750438 0.061625 0.324092 10.106469 3.789052 -0.980355 16.135565 0.275052 -0.422701 -20.579645 0.000000 0.000000 0.000000 0.000000 0.000000 0.000000 0.000000 0.000000 0.000000 
0.287494 88.783485 3.396398 -0.204835 -1.228217 -10.703818 0.922348 0.038358 7.254371 -1.164387 0.358100 3.314779 0.138815 -0.935643 4.363743 -1.200180 0.089033 5.015023 1.886295 0.017987 3.339512 0.552017 0.583412 -3.843063 -0.216156 -1.010985 -19.143677 0.000000 0.000000 0.000000 91.611008 -0.289540 9.748820 69.398315 -21.099623 2.350765 0.231085 19.723083 33.016876 -5.496201 15.159548 -7.559359 19.003878 30.366575 62.872093 -7.624837 -10.590605 -18.158169 -5.594900 -6.947761 -12.547332 0.000000 0.000000 0.000000 3.739736 -9.621705 5.387976 5.481204 0.441328 0.957487 5.194016 -0.000055 0.963528 0.000000 0.000000 0.000000 4.005084 -4.091358 2.949739 4.545043 0.497274 0.346568 5.167011 -0.009655 0.321103 0.000000 0.000000 0.000000 5.759080 3.563143 0.709768 5.479114 -0.964493 -0.570763 5.361257 0.012828 -0.389010 0.000000 0.000000 0.000000 5.883595 11.887636 -2.778821 5.916935 -1.859189 -1.558835 5.593781 0.091961 -1.248735 0.000000 0.000000 0.000000 0.000000 0.000000 0.000000 0.000000 0.000000 0.000000 -88.858185 0.130462 4.993989 -71.842537 12.408454 -8.775080 -0.485791 -15.632138 62.454414 2.372207 -21.652134 -12.462129 -21.281855 -29.821075 60.760445 9.621525 14.897383 -24.571251 7.327278 9.993917 -17.219330 0.000000 0.000000 0.000000 -25.400312 -4.626800 1.699047 -17.396097 0.319429 -1.039224 -17.328333 -0.152370 -1.006831 0.000000 0.000000 0.000000 -25.640354 0.705720 0.403042 -17.661673 0.411971 -0.496981 -17.753098 -0.065987 -0.406382 0.000000 0.000000 0.000000 -30.664846 9.310852 -0.801593 -20.839182 -0.855930 0.877518 -20.830048 0.102197 0.677276 0.000000 0.000000 0.000000 -33.714176 17.746666 -2.735317 -22.449921 -1.437798 2.849725 -22.100122 0.488271 2.453166 0.000000 0.000000 0.000000 0.000000 0.000000 0.000000 0.000000 0.000000 0.000000 -0.659661 -9.010983 14.850411 -0.083720 -0.714750 5.014889 -2.653166 -7.606366 17.461180 -0.846747 0.895815 -18.601574 0.000000 0.000000 0.000000 0.000000 0.000000 0.000000 0.000000 0.000000 0.000000 -1.569388 -5.872762 9.819068 0.060558 0.318991 10.048451 3.786392 -1.025475 16.092699 0.272405 -0.417244 -20.538773 0.000000 0.000000 0.000000 0.000000 0.000000 0.000000 0.000000 0.000000 0.000000 
